/* XPM */
static char *result[] = {
/* columns rows colors chars-per-pixel */
"32 32 17 1 ",
"  c white",
". c #9BADB7",
"X c #CBDBFC",
"o c gray88",
"O c #CDCDCD",
"+ c gray98",
"@ c #F1F1F1",
"# c #E9E9E9",
"$ c #EEEEEE",
"% c gray29",
"& c #F4F4F4",
"* c #ECECEC",
"= c gray95",
"- c gray93",
"; c #EAEAEA",
": c #393939",
"> c #191919",
/* pixels */
"                                ",
"                      .         ",
"                     . .        ",
"                      .         ",
"                                ",
"                                ",
"                 X              ",
"                oXo             ",
"      X          OOo X          ",
"      X          oOoXX    o     ",
"      X X  +@#####O#### oOO     ",
"     oo X +$O#OO%%%%%%###Oo     ",
"     oOOo&*##O%O%%%%%%%%%##     ",
"      =O-;##OO%O%%%%%%%%%%##    ",
"      #%%%OOOO%%%%%%%%%%%%%##   ",
"X    ##%%%OOOO%%%%%%%%%%%%%%#   ",
" X   #%%%%O%OO%%%:::::::%%%%#  X",
"X   #%%%%%O%O%::::::::::::%%OO  ",
"  oo#%%%%%O%:::::::::::::::%# O ",
"  OOO%%%%%%:::::::::::::::::#   ",
" OOo#%%%%%::::::::::::::::::#   ",
"    ##%%%:::::::::>>>>>:::::#   ",
"     #%%::::::::>>>>>>>>>::##   ",
"     #%%::::::>>>>>>>>>>O###    ",
"     ##O::::::>>>>>>>>>#O#o     ",
"     oOO###:::>>>>>>>###oOOO    ",
"     OOo  ######O##### X oo     ",
"    O o       oOOo     X        ",
"              oOo               ",
"             X O                ",
"            X X                 ",
"             X                  "
};
