/* XPM */
static char *result[] = {
/* columns rows colors chars-per-pixel */
"32 32 6 1 ",
"  c white",
". c #9BADB7",
"X c #CBDBFC",
"o c #3E734E",
"O c #4D9262",
"+ c #7AB055",
/* pixels */
"                                ",
"                      .         ",
"                     . .        ",
"                      .         ",
"                                ",
"                                ",
"                                ",
"                                ",
"      X           Xo X          ",
"      X  o       XXOoX          ",
"      X XoX  XXXXXOoo.          ",
"      X oO+XX+OOOOOo o          ",
"       o  OOO  Ooooo oo         ",
"       oX OO        Xoo         ",
"       oOX        XXOo o        ",
"X     oOO+X    XXXOOoo oo       ",
" X   o  OOO XXX+OOOooo  o      X",
"X    oX  OO OOOOooooOO Xo       ",
"     o+X    OOOOOOOO   Xoo      ",
"     oO+   XOO O  O    Ooo      ",
"     oO+X              O o      ",
"    o oO+XXXXX    XXXX o oo     ",
"    oX o OOOO+X   +OOO  Xoo     ",
"    oOX  ooooOO  Oooo  XOoo     ",
"    oOOXX OOOo    o  XXOoo      ",
"     oOOOO   XXXXX XXOOooo      ",
"      oOooOOOOOOOOOOoooooX      ",
"       ooooooooooooooooo        ",
"           ooooooooo            ",
"             X                  ",
"            X X                 ",
"             X                  "
};
