/* XPM */
static char *_f27f3c808ca4627c5cdb8a6527218d0cpSkH8AVtBRfQ03Y[] = {
/* columns rows colors chars-per-pixel */
"32 32 6 1 ",
"  c white",
". c #9BADB7",
"X c #CBDBFC",
"o c #3E734E",
"O c #4D9262",
"+ c #7AB055",
/* pixels */
"                                ",
"                      .         ",
"                     . .        ",
"                  X   .         ",
"                 XX             ",
"               XXX              ",
"          oOX                   ",
"         oO+X                   ",
"      X  o   X+O                ",
"      X o  XX+O+ X     X        ",
"      XoOOXO++ XXOX    Xo       ",
"      X OOO+O+O+OOO  XXoo       ",
"         +O    OO   Xoooo       ",
"      o XX+oXXX  XXXoooooo      ",
"      XXX+++oooooooOOOoooo      ",
"X     oO+++OOOOOOOOOOOOo o      ",
" X   oO  O+O+OO         Xoo    X",
"X   oO     OO       XoXXOooo    ",
"    oOXXX  X OOOX  XoOoOooo     ",
"    oOOOOXXOOOOOOXXoOoOoOoo     ",
"      OOoOoOOOOOOOOOOOOOooo     ",
"      OOOoOoOoOOOOOOOOOoOooo    ",
"      +OOOoOoOoOoOOOOOOOoo oo   ",
"   X  O+OOOoooooOoOOO  O    o   ",
"   X   O+OOOoooooOOO     XXXo   ",
"   oX   O+OOO     OO    XOOooo  ",
"   oo    O+  XXXX     XXoOoooo  ",
"  ooXXX     OOoooXXXXXooOoOoooo ",
" o  XooXXXXXOOOOoooooooOoOoOooo ",
" o   ooooooOOOOOOOoooOOoOo oooo ",
" oX   +OOOOOOOOOOOOOOOOO   Xooo ",
" ooX   +OOOOOOOOOOOOOO    Xoooo "
};
