/* XPM */
static char *_e41189cd4ea4a10bb4d97f30a4a585enD1KW7zonzW1TLPy[] = {
/* columns rows colors chars-per-pixel */
"32 32 10 1 ",
"  c white",
". c #3E734E",
"X c #4D9262",
"o c #CBDBFC",
"O c #7AB055",
"+ c #45283C",
"@ c #663931",
"# c #B2B2B2",
"$ c #6C7980",
"% c #8E99B0",
/* pixels */
" ..Xoo   XX     oXXXXooooo..X.  ",
" ...XXooXXo    oXXXXXXX.X.... o ",
".....XXXXXXooooXXXXXX....... o. ",
".........XXXXXXXXXXXXXXXX   o...",
". .XXXXXX  XXXXXXXXXXXXX  XXX...",
".   X. oo      ....XOO   oX.....",
".    X...ooo .....X   ooX.......",
".o   X........Xoooooooooo..XX...",
".o  ooX..................XXXXX..",
".Xo    X..........XXXX     oXX..",
".XXoo    XXXX  XXXXX    ooOXXX..",
" .XXOooXXXX ooo  X oooooXXXX....",
"  ...XXooXXXXXXXXXXXXXXXXX..... ",
"   ....XXXXXXX..XXXXXXXX......  ",
"    .....XXXX................   ",
"o     ......................    ",
" o      ......++++++..         o",
"o        ...++++++++            ",
"           @@@@+@+@+            ",
"           @@@@+@+@+##          ",
"       ####@@@@@@+@++#####      ",
"     #####@+@@@@@+@++#######    ",
"    #####@++@@@@@+@++@#######   ",
"   #######$#@@+@@+++++@#######  ",
"   ########@@@+@++++@####%####  ",
"    #######@+++++++++@#%#%###   ",
"     ######@########++#%#%##    ",
"       ################%##      ",
"           ###########          ",
"             o                  ",
"            o o                 ",
"             o                  "
};
