/* XPM */
static char *fba3765b980c45fcec2306265d366c41ZsRByjRdGJvfzIOC[] = {
/* columns rows colors chars-per-pixel */
"32 32 6 1 ",
"  c white",
". c #3E734E",
"X c #4D9262",
"o c #CBDBFC",
"O c #7AB055",
"+ c #B2B2B2",
/* pixels */
" ..Xoo   XX     oXXXXooooo..X.  ",
" ...XXooXXo    oXXXXXXX.X.... o ",
".....XXXXXXoooo   XXX....... o. ",
".........XXXX     oXXXXXX   o...",
". .XXXXXX  Xo    oo XXXX  XXX...",
".   X. oo oo   ooo   Oo  oX.....",
".    X...o.Xo         ooX.......",
".o   X....XOo          oo..XX...",
".o  ooX...   oOX       ..XXXXX..",
".Xo    X.o ooOXO o     oOXOOXX..",
".XXoo  oXXoXOO ooXo    o.OOXXX..",
" .XXOoooXXXOXOXOXXX  oo..XXX....",
"  ...XX  OX    XX   o....X..... ",
"   .... ooO.ooo  ooo..........  ",
"    ..oooOOO.......XXX.......   ",
"o     .XOOOXXXXXXXXXXXX. ...    ",
" o   .X  XOXOXX         o..    o",
"o   .X     XX       o.ooX...    ",
"    .Xooo  o XXXo  o.X.X...     ",
"    .XXXXooXXXXXXoo.X.X.X..     ",
"      XX.X.XXXXXXXXXXXXX...     ",
"      XXX.X.X.XXXXXXXXX.X...    ",
"      OXXX.X.X.X.XXXXXXX.. ..   ",
"   o  XOXXX.....X.XXX  X    .+  ",
"   o   XOXXX.....XXX     ooo.+  ",
"   .o   XOXXX     XX    oXX...  ",
"   ..    XO  oooo     oo.X....  ",
"  ..ooo     XX...ooooo..X.X.... ",
" .  o..oooooXXXX.......X.X.X... ",
" .   ......XXXXXXX...XX.X. .... ",
" .o   OXXXXXXXXXXXXXXXXX   o... ",
" ..o   OXXXXXXXXXXXXXX    o.... "
};
