/* XPM */
static char *result[] = {
/* columns rows colors chars-per-pixel */
"32 32 13 1 ",
"  c white",
". c #9BADB7",
"X c #CBDBFC",
"o c gray13",
"O c #282828",
"+ c gray88",
"@ c gray38",
"# c #736D6C",
"$ c #EBD0A2",
"% c #615B5A",
"& c #857D7B",
"* c #BFA984",
"= c #FFAD91",
/* pixels */
"                                ",
"                      .         ",
"                     . .        ",
"                      .         ",
"                                ",
"                                ",
"                 X              ",
"                 XX             ",
"      X          XX  X          ",
"      X           X.XX          ",
"      X X         .XX.          ",
"      X X          ..           ",
"        X                       ",
"                                ",
"                                ",
"X                               ",
" X   ooooo                     X",
"X   oOOOOOo                     ",
"    oOOoO+o                     ",
"   o@@Oo++o                     ",
"    o+++++oo                    ",
"   ooOO+++++o                   ",
"   oOOOO##+++o                  ",
"   oOOO$%#&&%#o                 ",
"   oO$$$$o%%o#o          X      ",
"   o*$$$$$ooo#%o       X X      ",
"    o***$$$$$#&%o      X X      ",
"     ooo******o&%o     X        ",
"       ooooo*o oo%o             ",
"       o=o==oX   o              ",
"            X X                 ",
"             X                  "
};
