/* XPM */
static char *result[] = {
/* columns rows colors chars-per-pixel */
"32 32 9 1 ",
"  c white",
". c #9BADB7",
"X c #7C7C7C",
"o c #CBDBFC",
"O c gray71",
"+ c gray88",
"@ c #2F2F2E",
"# c #D0D0D0",
"$ c #929292",
/* pixels */
"                                ",
"                      .         ",
"                     . .        ",
"                      .         ",
"                                ",
"                                ",
"    XXXX    XXXX o              ",
"    XXXX    XXXX oo             ",
"    XXXXXXXXOOXX oo  oXXXX      ",
"    XXXXXXXXOOXX  o.ooXXXX      ",
"    XX++++++OOXX  .oo.XX++XX    ",
"    XX++++++OOXX   .. XX++XX    ",
"  XXOOOO@@++OOXX      XX++XX    ",
"  XXOOOO@@++OOXX      XX++XX    ",
"  XX++++++++OOXX      XX++XX    ",
"o XX++++++++OOXX      XX++XX    ",
" oXXOOOOOOOOOOXXXXXXXXXX++XX   o",
"o XXOOOOOOOOOOXXXXXXXXXX++XX    ",
"    XX++++++++++++++++++XX      ",
"    XX++++++++++++++++++XX      ",
"    XX++++++++++++++++++XX      ",
"    XX++++++++++++++++++XX      ",
"    XX++OO++XX++++++XX++XX      ",
"    XX++OO++XX++++++XX++XX      ",
"   #XX++$$++XXXXXXXXXXOOXX#     ",
"  ##XX++$$++XXXXXXXXXXOOXX##    ",
"  ##XXXX##XXXX##XXXX##XXXX##    ",
"  ##XXXX##XXXX##XXXX##XXXX##    ",
"  ##########################    ",
"   ########################     ",
"            o o                 ",
"             o                  "
};
