/* XPM */
static char *result[] = {
/* columns rows colors chars-per-pixel */
"32 32 16 1 ",
"  c white",
". c #9BADB7",
"X c #7C7C7C",
"o c gray71",
"O c gray88",
"+ c gray98",
"@ c #F1F1F1",
"# c #E9E9E9",
"$ c #EEEEEE",
"% c #CDCDCD",
"& c #ECECEC",
"* c gray29",
"= c #2F2F2E",
"- c #CBDBFC",
"; c #D0D0D0",
": c #929292",
/* pixels */
"                                ",
"                      .         ",
"                     . .        ",
"                      .         ",
"                                ",
"                                ",
"                XXXX    XXXX    ",
"                XXXX    XXXX    ",
"      XXXX      XXooXXXXXXXX    ",
"      XXXX      XXooXXXXXXXX    ",
"    XXOOXX +@###XXooOOOOOOXX    ",
"    XXOOXX+$%#%%XXooOOOOOOXX    ",
"    XXOOXX&##%*%XXooOO==ooooXX  ",
"    XXOOXX##%%*%XXooOO==ooooXX  ",
"    XXOOXX%%%%**XXooOOOOOOOOXX  ",
"-   XXOOXX%%%%**XXooOOOOOOOOXX  ",
" -  XXOOXXXXXXXXXXooooooooooXX -",
"-   XXOOXXXXXXXXXXooooooooooXX  ",
"  OO#*XXOOOOOOOOOOOOOOOOOOXX# % ",
"  %%%*XXOOOOOOOOOOOOOOOOOOXX#   ",
" %%O#*XXOOOOOOOOOOOOOOOOOOXX#   ",
"    ##XXOOOOOOOOOOOOOOOOOOXX#   ",
"     #XXOOXXOOOOOOXXOOooOOXX#   ",
"     #XXOOXXOOOOOOXXOOooOOXX    ",
"     ;XXooXXXXXXXXXXOO::OOXX;   ",
"    ;;XXooXXXXXXXXXXOO::OOXX;;  ",
"    ;;XXXX;;XXXX;;XXXX;;XXXX;;  ",
"    ;;XXXX;;XXXX;;XXXX;;XXXX;;  ",
"    ;;;;;;;;;;;;;;;;;;;;;;;;;;  ",
"     ;;;;;;;;;;;;;;;;;;;;;;;;   ",
"            - -                 ",
"             -                  "
};
