/* XPM */
static char *result[] = {
/* columns rows colors chars-per-pixel */
"32 32 13 1 ",
"  c white",
". c #9BADB7",
"X c #7C7C7C",
"o c #CBDBFC",
"O c gray88",
"+ c gray71",
"@ c #CDCDCD",
"# c #E9E9E9",
"$ c gray29",
"% c #2F2F2E",
"& c #393939",
"* c #D0D0D0",
"= c #929292",
/* pixels */
"                                ",
"                      .         ",
"                     . .        ",
"                      .         ",
"                                ",
"                                ",
"    XXXX    XXXX o              ",
"    XXXX    XXXXOoO             ",
"    XXXXXXXX++XX @@O oXXXX      ",
"    XXXXXXXX++XX O@OooXXXXO     ",
"    XXOOOOOO++XX##@###XXOOXX    ",
"    XXOOOOOO++XX$$$$$$XXOOXX    ",
"  XX++++%%OO++XX$$$$$$XXOOXX    ",
"  XX++++%%OO++XX$$$$$$XXOOXX    ",
"  XXOOOOOOOO++XX$$$$$$XXOOXX#   ",
"o XXOOOOOOOO++XX$$$$$$XXOOXX#   ",
" oXX++++++++++XXXXXXXXXXOOXX#  o",
"o XX++++++++++XXXXXXXXXXOOXX@@  ",
"  OOXXOOOOOOOOOOOOOOOOOOXX&$# @ ",
"  @@XXOOOOOOOOOOOOOOOOOOXX&&#   ",
" @@OXXOOOOOOOOOOOOOOOOOOXX&&#   ",
"    XXOOOOOOOOOOOOOOOOOOXX&&#   ",
"    XXOO++OOXXOOOOOOXXOOXX&##   ",
"    XXOO++OOXXOOOOOOXXOOXX##    ",
"   *XXOO==OOXXXXXXXXXX++XX*     ",
"  **XXOO==OOXXXXXXXXXX++XX**    ",
"  **XXXX**XXXX**XXXX**XXXX**    ",
"  **XXXX**XXXX**XXXX**XXXX**    ",
"  **************************    ",
"   ************************     ",
"            o o                 ",
"             o                  "
};
